<svg width="306" height="261" viewBox="0 0 306 261" fill="none" xmlns="http://www.w3.org/2000/svg">
    <mask id="mask0_37_450" style="mask-type:luminance" maskUnits="userSpaceOnUse" x="0" y="0" width="306" height="261">
        <path
            d="M7.2849 3.57783C5.34453 6.9853 6.50195 11.3128 9.90611 13.2891L44.8328 33.3931V149.315V149.86C44.8328 149.894 44.8328 149.928 44.8328 149.962C44.8328 150.201 44.8668 150.439 44.8668 150.644C44.8668 150.712 44.9009 150.78 44.9009 150.848C44.969 151.394 45.1392 151.939 45.3434 152.484C45.3775 152.552 45.3775 152.586 45.4115 152.654C45.5136 152.859 45.6157 153.097 45.7179 153.302C45.7519 153.336 45.7519 153.37 45.786 153.438C46.0583 153.915 46.4328 154.392 46.8413 154.801C46.8753 154.835 46.9093 154.869 46.9774 154.937C47.1476 155.108 47.3178 155.244 47.488 155.38C47.5561 155.414 47.5902 155.483 47.6582 155.517C47.8965 155.687 48.1348 155.857 48.3731 155.994L86.8401 178.142L107.64 190.102C107.606 190.477 107.571 190.852 107.571 191.227C107.571 198.655 113.597 204.686 121.018 204.686C128.439 204.686 134.464 198.655 134.464 191.227C134.464 183.799 128.439 177.767 121.018 177.767C119.316 177.767 117.716 178.108 116.218 178.653L93.9548 165.841L59.0281 145.737V41.537L69.9215 47.8067L83.2998 55.5076V125.429C83.2998 127.95 84.6274 130.233 86.772 131.528L88.2358 132.38L88.338 132.448L148.319 167V209.423V241.316L121.358 225.778L93.9548 210.036L80.9169 202.54L55.4538 187.887L20.5271 167.783V68.047C24.3397 65.6618 26.8929 61.4366 26.8929 56.632C26.8929 49.2038 20.8675 43.1726 13.4464 43.1726C6.02536 43.1726 0 49.2038 0 56.632C0 61.4366 2.55312 65.6618 6.36578 68.047V171.872C6.36578 174.394 7.72744 176.779 9.94015 178.04L48.4072 200.188L73.8703 214.841L86.9082 222.337L114.312 238.113L151.928 259.785C154.14 261.046 156.83 261.046 159.008 259.785C161.221 258.524 162.549 256.173 162.549 253.652V214.432L200.165 192.794L225.526 178.21L263.993 156.062C266.205 154.801 267.567 152.45 267.567 149.894V95.5112C271.175 93.0919 273.558 88.9688 273.558 84.3347C273.558 76.9064 267.533 70.8752 260.112 70.8752C252.691 70.8752 246.665 76.9064 246.665 84.3347C246.665 89.3096 249.389 93.6371 253.406 95.9882V145.771L218.479 165.875L193.05 180.459L162.515 198.042V167.886L223.994 132.482L224.096 132.414L225.56 131.562C227.704 130.267 229.032 127.984 229.032 125.463V55.5416L242.41 47.8408L263.959 35.4376L291.805 19.4225V167.783L256.878 187.887L231.415 202.54L218.377 210.036L198.258 221.621C196.59 220.872 194.718 220.429 192.778 220.429C185.357 220.429 179.331 226.46 179.331 233.888C179.331 241.316 185.357 247.348 192.778 247.348C200.199 247.348 206.224 241.316 206.224 233.888C206.224 233.718 206.19 233.582 206.19 233.445L225.458 222.371L238.495 214.875L263.959 200.222L302.426 178.074C304.638 176.813 306 174.462 306 171.906V7.1216C306 4.566 304.638 2.24892 302.46 0.954088C300.281 -0.306673 297.558 -0.306673 295.379 0.954088L256.912 23.1026L235.364 35.5058L218.411 45.2511C216.198 46.5119 214.837 48.863 214.837 51.4186V121.374L156.183 155.142L97.5292 121.374V51.4186C97.5292 48.863 96.1675 46.5119 93.9548 45.2511L77.0021 35.5058L55.4538 23.1026L16.9868 0.954088C15.8634 0.30667 14.6719 0 13.4464 0C10.9954 0 8.61252 1.29483 7.2849 3.57783Z"
            fill="white" />
    </mask>
    <g mask="url(#mask0_37_450)">
        <path d="M306 0H0V261H306V0Z" fill="url(#paint0_linear_37_450)" />
    </g>
    <defs>
        <linearGradient id="paint0_linear_37_450" x1="153.001" y1="260.646" x2="153.001" y2="0.300053"
            gradientUnits="userSpaceOnUse">
            <stop stop-color="#6C38F8" />
            <stop offset="0.4961" stop-color="#6C38F8" />
            <stop offset="1" stop-color="#B461FD" />
        </linearGradient>
    </defs>
</svg>